{"accessors":[{"bufferView":0,"componentType":5126,"count":80,"max":[6.115,4.115,3.0],"min":[-0.115,-0.115,-0.125],"type":"VEC3"},{"bufferView":1,"componentType":5125,"count":360,"max":[79],"min":[0],"type":"SCALAR"}],"asset":{"generator":"Fabin JP_Computer-Aided-Drawings open-architecture-engine-v0.2","version":"2.0"},"bufferViews":[{"buffer":0,"byteLength":960,"byteOffset":0,"target":34962},{"buffer":0,"byteLength":1440,"byteOffset":960,"target":34963}],"buffers":[{"byteLength":2400,"uri":"data:application/octet-stream;base64,"}],"meshes":[{"primitives":[{"attributes":{"POSITION":0},"indices":1,"mode":4}]}],"nodes":[{"extras":{"canonical_element_ids":["DOOR-GF-001","OPEN-GF-DOOR-001","OPEN-GF-WINDOW-001","SLAB-GF-001","WALL-GF-001","WALL-GF-002","WALL-GF-003","WALL-GF-004","WINDOW-GF-001"],"piece_provenance":[{"kind":"slab","piece_count":1,"source_element_id":"SLAB-GF-001"},{"hosted_opening_ids":["OPEN-GF-DOOR-001"],"kind":"wall","piece_count":3,"source_element_id":"WALL-GF-001"},{"hosted_opening_ids":[],"kind":"wall","piece_count":1,"source_element_id":"WALL-GF-002"},{"hosted_opening_ids":["OPEN-GF-WINDOW-001"],"kind":"wall","piece_count":4,"source_element_id":"WALL-GF-003"},{"hosted_opening_ids":[],"kind":"wall","piece_count":1,"source_element_id":"WALL-GF-004"}],"room_ids":["ROOM-GF-E6825D26"]},"mesh":0,"name":"POC-OPEN-ARCH-002"}],"scene":0,"scenes":[{"nodes":[0]}]}