0
SECTION
2
HEADER
0
ENDSEC
0
SECTION
2
ENTITIES
0
LINE
8
A-SLAB
10
0
20
0
30
0
11
6000
21
0
31
0
0
LINE
8
A-SLAB
10
6000
20
0
30
0
11
6000
21
4000
31
0
0
LINE
8
A-SLAB
10
6000
20
4000
30
0
11
0
21
4000
31
0
0
LINE
8
A-SLAB
10
0
20
4000
30
0
11
0
21
0
31
0
0
LINE
8
A-WALL
10
0.0
20
115.0
30
0
11
1200.0
21
115.0
31
0
0
LINE
8
A-WALL
10
0.0
20
-115.0
30
0
11
1200.0
21
-115.0
31
0
0
LINE
8
A-WALL
10
0.0
20
115.0
30
0
11
0.0
21
-115.0
31
0
0
LINE
8
A-WALL
10
1200.0
20
115.0
30
0
11
1200.0
21
-115.0
31
0
0
LINE
8
A-WALL
10
2200.0
20
115.0
30
0
11
6000.0
21
115.0
31
0
0
LINE
8
A-WALL
10
2200.0
20
-115.0
30
0
11
6000.0
21
-115.0
31
0
0
LINE
8
A-WALL
10
2200.0
20
115.0
30
0
11
2200.0
21
-115.0
31
0
0
LINE
8
A-WALL
10
6000.0
20
115.0
30
0
11
6000.0
21
-115.0
31
0
0
LINE
8
A-WALL
10
5885.0
20
0.0
30
0
11
5885.0
21
4000.0
31
0
0
LINE
8
A-WALL
10
6115.0
20
0.0
30
0
11
6115.0
21
4000.0
31
0
0
LINE
8
A-WALL
10
5885.0
20
0.0
30
0
11
6115.0
21
0.0
31
0
0
LINE
8
A-WALL
10
5885.0
20
4000.0
30
0
11
6115.0
21
4000.0
31
0
0
LINE
8
A-WALL
10
6000.0
20
3885.0
30
0
11
3900.0
21
3885.0
31
0
0
LINE
8
A-WALL
10
6000.0
20
4115.0
30
0
11
3900.0
21
4115.0
31
0
0
LINE
8
A-WALL
10
6000.0
20
3885.0
30
0
11
6000.0
21
4115.0
31
0
0
LINE
8
A-WALL
10
3900.0
20
3885.0
30
0
11
3900.0
21
4115.0
31
0
0
LINE
8
A-WALL
10
2400.0
20
3885.0
30
0
11
0.0
21
3885.0
31
0
0
LINE
8
A-WALL
10
2400.0
20
4115.0
30
0
11
0.0
21
4115.0
31
0
0
LINE
8
A-WALL
10
2400.0
20
3885.0
30
0
11
2400.0
21
4115.0
31
0
0
LINE
8
A-WALL
10
0.0
20
3885.0
30
0
11
0.0
21
4115.0
31
0
0
LINE
8
A-WALL
10
115.0
20
4000.0
30
0
11
115.0
21
0.0
31
0
0
LINE
8
A-WALL
10
-115.0
20
4000.0
30
0
11
-115.0
21
0.0
31
0
0
LINE
8
A-WALL
10
115.0
20
4000.0
30
0
11
-115.0
21
4000.0
31
0
0
LINE
8
A-WALL
10
115.0
20
0.0
30
0
11
-115.0
21
0.0
31
0
0
LINE
8
A-DOOR
10
1200.0
20
0.0
30
0
11
1200.0
21
1000.0
31
0
0
LINE
8
A-WINDOW
10
3900.0
20
4057.5
30
0
11
2400.0
21
4057.5
31
0
0
LINE
8
A-WINDOW
10
3900.0
20
3942.5
30
0
11
2400.0
21
3942.5
31
0
ENDSEC
0
EOF
