{"asset":{"version":"2.0","generator":"Fabin Project_Drawings open-architecture-engine-v0.1"},"scene":0,"scenes":[{"nodes":[0]}],"nodes":[{"mesh":0,"name":"POC-OPEN-ARCH-001"}],"meshes":[{"primitives":[{"attributes":{"POSITION":0},"indices":1,"mode":4}]}],"buffers":[{"byteLength":1200,"uri":"data:application/octet-stream;base64,"}],"bufferViews":[{"buffer":0,"byteOffset":0,"byteLength":480,"target":34962},{"buffer":0,"byteOffset":480,"byteLength":720,"target":34963}],"accessors":[{"bufferView":0,"componentType":5126,"count":40,"type":"VEC3","min":[-0.115,-0.115,-0.125],"max":[6.115,4.115,3.0]},{"bufferView":1,"componentType":5125,"count":180,"type":"SCALAR","min":[0],"max":[39]}]}